<mxfile host="app.diagrams.net" modified="2022-07-04T17:12:00.875Z" agent="5.0 (Macintosh; Intel Mac OS X 10_15_7) AppleWebKit/537.36 (KHTML, like Gecko) Chrome/103.0.0.0 Safari/537.36" etag="4a667zYFfPGbMtm3yzuf" compressed="false" version="20.0.4" type="github">
  <diagram name="Page-1" id="e7e014a7-5840-1c2e-5031-d8a46d1fe8dd">
    <mxGraphModel dx="1426" dy="889" grid="1" gridSize="10" guides="1" tooltips="1" connect="1" arrows="1" fold="1" page="1" pageScale="1" pageWidth="1169" pageHeight="826" background="#FFFFFF" math="0" shadow="0">
      <root>
        <mxCell id="0" />
        <mxCell id="1" parent="0" />
        <mxCell id="ZvzS9FrOkyC6fBPtpC9W-44" value="" style="edgeStyle=orthogonalEdgeStyle;rounded=0;orthogonalLoop=1;jettySize=auto;html=1;" parent="1" source="ZvzS9FrOkyC6fBPtpC9W-41" target="ZvzS9FrOkyC6fBPtpC9W-42" edge="1">
          <mxGeometry relative="1" as="geometry" />
        </mxCell>
        <mxCell id="ZvzS9FrOkyC6fBPtpC9W-45" value="Sell USDC &lt;br&gt;for yvUSDC" style="edgeLabel;html=1;align=center;verticalAlign=middle;resizable=0;points=[];" parent="ZvzS9FrOkyC6fBPtpC9W-44" vertex="1" connectable="0">
          <mxGeometry x="-0.1273" y="1" relative="1" as="geometry">
            <mxPoint y="1" as="offset" />
          </mxGeometry>
        </mxCell>
        <mxCell id="DhYsW5sf-vEA2xXuITr3-2" style="edgeStyle=orthogonalEdgeStyle;rounded=0;orthogonalLoop=1;jettySize=auto;html=1;entryX=0.5;entryY=1;entryDx=0;entryDy=0;" parent="1" source="ZvzS9FrOkyC6fBPtpC9W-41" target="DhYsW5sf-vEA2xXuITr3-1" edge="1">
          <mxGeometry relative="1" as="geometry">
            <Array as="points">
              <mxPoint x="65" y="550" />
              <mxPoint x="960" y="550" />
            </Array>
          </mxGeometry>
        </mxCell>
        <mxCell id="DhYsW5sf-vEA2xXuITr3-4" value="Approve outgoing token" style="edgeLabel;html=1;align=center;verticalAlign=middle;resizable=0;points=[];" parent="DhYsW5sf-vEA2xXuITr3-2" vertex="1" connectable="0">
          <mxGeometry x="0.1701" relative="1" as="geometry">
            <mxPoint as="offset" />
          </mxGeometry>
        </mxCell>
        <mxCell id="ZvzS9FrOkyC6fBPtpC9W-41" value="" style="shape=umlActor;verticalLabelPosition=bottom;verticalAlign=top;html=1;outlineConnect=0;" parent="1" vertex="1">
          <mxGeometry x="50" y="90" width="30" height="60" as="geometry" />
        </mxCell>
        <mxCell id="ZvzS9FrOkyC6fBPtpC9W-42" value="order book" style="shape=datastore;whiteSpace=wrap;html=1;fillColor=#d5e8d4;strokeColor=#82b366;" parent="1" vertex="1">
          <mxGeometry x="200" y="80" width="80" height="80" as="geometry" />
        </mxCell>
        <mxCell id="ZvzS9FrOkyC6fBPtpC9W-46" value="" style="endArrow=none;html=1;rounded=0;" parent="1" edge="1">
          <mxGeometry width="50" height="50" relative="1" as="geometry">
            <mxPoint x="600" y="580" as="sourcePoint" />
            <mxPoint x="600" y="20" as="targetPoint" />
          </mxGeometry>
        </mxCell>
        <mxCell id="ZvzS9FrOkyC6fBPtpC9W-47" value="Yearn &lt;br&gt;Solver" style="whiteSpace=wrap;html=1;aspect=fixed;fillColor=#dae8fc;strokeColor=#6c8ebf;" parent="1" vertex="1">
          <mxGeometry x="440" y="360" width="80" height="80" as="geometry" />
        </mxCell>
        <mxCell id="DhYsW5sf-vEA2xXuITr3-5" style="edgeStyle=orthogonalEdgeStyle;rounded=0;orthogonalLoop=1;jettySize=auto;html=1;exitX=1;exitY=0.5;exitDx=0;exitDy=0;entryX=0;entryY=0.5;entryDx=0;entryDy=0;" parent="1" source="ZvzS9FrOkyC6fBPtpC9W-50" target="DhYsW5sf-vEA2xXuITr3-1" edge="1">
          <mxGeometry relative="1" as="geometry" />
        </mxCell>
        <mxCell id="DhYsW5sf-vEA2xXuITr3-6" value="call TransferFrom()" style="edgeLabel;html=1;align=center;verticalAlign=middle;resizable=0;points=[];" parent="DhYsW5sf-vEA2xXuITr3-5" vertex="1" connectable="0">
          <mxGeometry x="0.2125" relative="1" as="geometry">
            <mxPoint x="-15" as="offset" />
          </mxGeometry>
        </mxCell>
        <mxCell id="ZvzS9FrOkyC6fBPtpC9W-50" value="Settlement Contract" style="whiteSpace=wrap;html=1;aspect=fixed;fillColor=#d5e8d4;strokeColor=#82b366;" parent="1" vertex="1">
          <mxGeometry x="680" y="360" width="80" height="80" as="geometry" />
        </mxCell>
        <mxCell id="ZvzS9FrOkyC6fBPtpC9W-52" style="edgeStyle=orthogonalEdgeStyle;rounded=0;orthogonalLoop=1;jettySize=auto;html=1;entryX=0.5;entryY=1;entryDx=0;entryDy=0;" parent="1" source="ZvzS9FrOkyC6fBPtpC9W-51" target="ZvzS9FrOkyC6fBPtpC9W-42" edge="1">
          <mxGeometry relative="1" as="geometry">
            <mxPoint x="230" y="160" as="targetPoint" />
          </mxGeometry>
        </mxCell>
        <mxCell id="ZvzS9FrOkyC6fBPtpC9W-53" value="poll &lt;br&gt;orders" style="edgeLabel;html=1;align=center;verticalAlign=middle;resizable=0;points=[];" parent="ZvzS9FrOkyC6fBPtpC9W-52" vertex="1" connectable="0">
          <mxGeometry x="-0.05" y="1" relative="1" as="geometry">
            <mxPoint as="offset" />
          </mxGeometry>
        </mxCell>
        <mxCell id="ZvzS9FrOkyC6fBPtpC9W-55" style="edgeStyle=orthogonalEdgeStyle;rounded=0;orthogonalLoop=1;jettySize=auto;html=1;exitX=1;exitY=0;exitDx=0;exitDy=0;entryX=0.5;entryY=1;entryDx=0;entryDy=0;" parent="1" source="ZvzS9FrOkyC6fBPtpC9W-51" target="ZvzS9FrOkyC6fBPtpC9W-54" edge="1">
          <mxGeometry relative="1" as="geometry" />
        </mxCell>
        <mxCell id="ZvzS9FrOkyC6fBPtpC9W-56" value="solve(orders)" style="edgeLabel;html=1;align=center;verticalAlign=middle;resizable=0;points=[];" parent="ZvzS9FrOkyC6fBPtpC9W-55" vertex="1" connectable="0">
          <mxGeometry x="-0.14" relative="1" as="geometry">
            <mxPoint as="offset" />
          </mxGeometry>
        </mxCell>
        <mxCell id="ZvzS9FrOkyC6fBPtpC9W-51" value="Driver" style="whiteSpace=wrap;html=1;aspect=fixed;fillColor=#d5e8d4;strokeColor=#82b366;" parent="1" vertex="1">
          <mxGeometry x="200" y="360" width="80" height="80" as="geometry" />
        </mxCell>
        <mxCell id="ZvzS9FrOkyC6fBPtpC9W-54" value="other solver" style="whiteSpace=wrap;html=1;aspect=fixed;fillColor=#e1d5e7;strokeColor=#9673a6;" parent="1" vertex="1">
          <mxGeometry x="440" y="80" width="80" height="80" as="geometry" />
        </mxCell>
        <mxCell id="ZvzS9FrOkyC6fBPtpC9W-66" value="2" style="ellipse;shape=doubleEllipse;whiteSpace=wrap;html=1;aspect=fixed;" parent="1" vertex="1">
          <mxGeometry x="118" y="70" width="30" height="30" as="geometry" />
        </mxCell>
        <mxCell id="ZvzS9FrOkyC6fBPtpC9W-67" value="3" style="ellipse;shape=doubleEllipse;whiteSpace=wrap;html=1;aspect=fixed;" parent="1" vertex="1">
          <mxGeometry x="190" y="250" width="30" height="30" as="geometry" />
        </mxCell>
        <mxCell id="ZvzS9FrOkyC6fBPtpC9W-68" value="4" style="ellipse;shape=doubleEllipse;whiteSpace=wrap;html=1;aspect=fixed;" parent="1" vertex="1">
          <mxGeometry x="340" y="222" width="30" height="30" as="geometry" />
        </mxCell>
        <mxCell id="ZvzS9FrOkyC6fBPtpC9W-69" value="4" style="ellipse;shape=doubleEllipse;whiteSpace=wrap;html=1;aspect=fixed;" parent="1" vertex="1">
          <mxGeometry x="343" y="342" width="30" height="30" as="geometry" />
        </mxCell>
        <mxCell id="ZvzS9FrOkyC6fBPtpC9W-70" value="5" style="ellipse;shape=doubleEllipse;whiteSpace=wrap;html=1;aspect=fixed;" parent="1" vertex="1">
          <mxGeometry x="340" y="430" width="30" height="30" as="geometry" />
        </mxCell>
        <mxCell id="ZvzS9FrOkyC6fBPtpC9W-71" value="Off-chain" style="text;html=1;strokeColor=none;fillColor=none;align=center;verticalAlign=middle;whiteSpace=wrap;rounded=0;" parent="1" vertex="1">
          <mxGeometry x="300" y="30" width="60" height="30" as="geometry" />
        </mxCell>
        <mxCell id="ZvzS9FrOkyC6fBPtpC9W-72" value="On-chain" style="text;html=1;strokeColor=none;fillColor=none;align=center;verticalAlign=middle;whiteSpace=wrap;rounded=0;" parent="1" vertex="1">
          <mxGeometry x="720" y="30" width="60" height="30" as="geometry" />
        </mxCell>
        <mxCell id="ZvzS9FrOkyC6fBPtpC9W-74" value="" style="endArrow=classic;html=1;rounded=0;exitX=0;exitY=0.75;exitDx=0;exitDy=0;entryX=1;entryY=0.75;entryDx=0;entryDy=0;" parent="1" source="ZvzS9FrOkyC6fBPtpC9W-47" target="ZvzS9FrOkyC6fBPtpC9W-51" edge="1">
          <mxGeometry width="50" height="50" relative="1" as="geometry">
            <mxPoint x="560" y="410" as="sourcePoint" />
            <mxPoint x="610" y="360" as="targetPoint" />
          </mxGeometry>
        </mxCell>
        <mxCell id="ZvzS9FrOkyC6fBPtpC9W-75" value="solution" style="edgeLabel;html=1;align=center;verticalAlign=middle;resizable=0;points=[];" parent="ZvzS9FrOkyC6fBPtpC9W-74" vertex="1" connectable="0">
          <mxGeometry x="0.15" y="2" relative="1" as="geometry">
            <mxPoint x="7" as="offset" />
          </mxGeometry>
        </mxCell>
        <mxCell id="ZvzS9FrOkyC6fBPtpC9W-77" value="Yearn Solver&lt;br&gt;Helper" style="whiteSpace=wrap;html=1;aspect=fixed;fillColor=#dae8fc;strokeColor=#6c8ebf;" parent="1" vertex="1">
          <mxGeometry x="680" y="160" width="80" height="80" as="geometry" />
        </mxCell>
        <mxCell id="ZvzS9FrOkyC6fBPtpC9W-78" value="solve(orders)" style="endArrow=classic;html=1;rounded=0;exitX=1;exitY=0.25;exitDx=0;exitDy=0;entryX=0;entryY=0.25;entryDx=0;entryDy=0;" parent="1" source="ZvzS9FrOkyC6fBPtpC9W-51" target="ZvzS9FrOkyC6fBPtpC9W-47" edge="1">
          <mxGeometry width="50" height="50" relative="1" as="geometry">
            <mxPoint x="560" y="400" as="sourcePoint" />
            <mxPoint x="610" y="350" as="targetPoint" />
          </mxGeometry>
        </mxCell>
        <mxCell id="ZvzS9FrOkyC6fBPtpC9W-79" value="" style="endArrow=classic;html=1;rounded=0;exitX=0.5;exitY=1;exitDx=0;exitDy=0;entryX=0.5;entryY=1;entryDx=0;entryDy=0;" parent="1" source="ZvzS9FrOkyC6fBPtpC9W-51" target="ZvzS9FrOkyC6fBPtpC9W-50" edge="1">
          <mxGeometry width="50" height="50" relative="1" as="geometry">
            <mxPoint x="560" y="400" as="sourcePoint" />
            <mxPoint x="660" y="420" as="targetPoint" />
            <Array as="points">
              <mxPoint x="240" y="510" />
              <mxPoint x="720" y="510" />
            </Array>
          </mxGeometry>
        </mxCell>
        <mxCell id="DhYsW5sf-vEA2xXuITr3-11" value="send action to settle" style="edgeLabel;html=1;align=center;verticalAlign=middle;resizable=0;points=[];" parent="ZvzS9FrOkyC6fBPtpC9W-79" vertex="1" connectable="0">
          <mxGeometry x="-0.2226" y="-2" relative="1" as="geometry">
            <mxPoint x="59" as="offset" />
          </mxGeometry>
        </mxCell>
        <mxCell id="ZvzS9FrOkyC6fBPtpC9W-80" value="Yearn &lt;br&gt;Vault" style="whiteSpace=wrap;html=1;aspect=fixed;fillColor=#dae8fc;strokeColor=#6c8ebf;" parent="1" vertex="1">
          <mxGeometry x="920" y="160" width="80" height="80" as="geometry" />
        </mxCell>
        <mxCell id="ZvzS9FrOkyC6fBPtpC9W-81" value="6" style="ellipse;shape=doubleEllipse;whiteSpace=wrap;html=1;aspect=fixed;" parent="1" vertex="1">
          <mxGeometry x="458" y="470" width="30" height="30" as="geometry" />
        </mxCell>
        <mxCell id="ZvzS9FrOkyC6fBPtpC9W-82" value="" style="endArrow=classic;html=1;rounded=0;exitX=0.25;exitY=0;exitDx=0;exitDy=0;entryX=0.25;entryY=1;entryDx=0;entryDy=0;" parent="1" source="ZvzS9FrOkyC6fBPtpC9W-50" target="ZvzS9FrOkyC6fBPtpC9W-77" edge="1">
          <mxGeometry width="50" height="50" relative="1" as="geometry">
            <mxPoint x="560" y="400" as="sourcePoint" />
            <mxPoint x="610" y="350" as="targetPoint" />
          </mxGeometry>
        </mxCell>
        <mxCell id="ZvzS9FrOkyC6fBPtpC9W-84" value="send action&lt;br&gt;to settle" style="edgeLabel;html=1;align=center;verticalAlign=middle;resizable=0;points=[];" parent="ZvzS9FrOkyC6fBPtpC9W-82" vertex="1" connectable="0">
          <mxGeometry x="-0.3333" y="-1" relative="1" as="geometry">
            <mxPoint x="-1" y="-10" as="offset" />
          </mxGeometry>
        </mxCell>
        <mxCell id="ZvzS9FrOkyC6fBPtpC9W-85" value="" style="endArrow=classic;html=1;rounded=0;entryX=0;entryY=0.25;entryDx=0;entryDy=0;exitX=1;exitY=0.25;exitDx=0;exitDy=0;" parent="1" source="ZvzS9FrOkyC6fBPtpC9W-77" target="ZvzS9FrOkyC6fBPtpC9W-80" edge="1">
          <mxGeometry width="50" height="50" relative="1" as="geometry">
            <mxPoint x="560" y="380" as="sourcePoint" />
            <mxPoint x="610" y="330" as="targetPoint" />
          </mxGeometry>
        </mxCell>
        <mxCell id="ZvzS9FrOkyC6fBPtpC9W-88" value="deposit" style="edgeLabel;html=1;align=center;verticalAlign=middle;resizable=0;points=[];" parent="ZvzS9FrOkyC6fBPtpC9W-85" vertex="1" connectable="0">
          <mxGeometry x="0.2" y="2" relative="1" as="geometry">
            <mxPoint x="-21" y="1" as="offset" />
          </mxGeometry>
        </mxCell>
        <mxCell id="ZvzS9FrOkyC6fBPtpC9W-86" value="8" style="ellipse;shape=doubleEllipse;whiteSpace=wrap;html=1;aspect=fixed;" parent="1" vertex="1">
          <mxGeometry x="648" y="311" width="30" height="30" as="geometry" />
        </mxCell>
        <mxCell id="ZvzS9FrOkyC6fBPtpC9W-87" value="9" style="ellipse;shape=doubleEllipse;whiteSpace=wrap;html=1;aspect=fixed;" parent="1" vertex="1">
          <mxGeometry x="820" y="140" width="30" height="30" as="geometry" />
        </mxCell>
        <mxCell id="ZvzS9FrOkyC6fBPtpC9W-89" value="mint &lt;br&gt;yvToken" style="endArrow=classic;html=1;rounded=0;exitX=0;exitY=0.75;exitDx=0;exitDy=0;entryX=1;entryY=0.75;entryDx=0;entryDy=0;" parent="1" source="ZvzS9FrOkyC6fBPtpC9W-80" target="ZvzS9FrOkyC6fBPtpC9W-77" edge="1">
          <mxGeometry width="50" height="50" relative="1" as="geometry">
            <mxPoint x="560" y="380" as="sourcePoint" />
            <mxPoint x="610" y="330" as="targetPoint" />
          </mxGeometry>
        </mxCell>
        <mxCell id="ZvzS9FrOkyC6fBPtpC9W-90" value="10" style="ellipse;shape=doubleEllipse;whiteSpace=wrap;html=1;aspect=fixed;" parent="1" vertex="1">
          <mxGeometry x="826" y="235" width="30" height="30" as="geometry" />
        </mxCell>
        <mxCell id="ZvzS9FrOkyC6fBPtpC9W-91" value="send &lt;br&gt;yvTokens" style="endArrow=classic;html=1;rounded=0;exitX=0.75;exitY=1;exitDx=0;exitDy=0;entryX=0.75;entryY=0;entryDx=0;entryDy=0;" parent="1" source="ZvzS9FrOkyC6fBPtpC9W-77" target="ZvzS9FrOkyC6fBPtpC9W-50" edge="1">
          <mxGeometry x="-0.6667" width="50" height="50" relative="1" as="geometry">
            <mxPoint x="560" y="380" as="sourcePoint" />
            <mxPoint x="610" y="330" as="targetPoint" />
            <mxPoint as="offset" />
          </mxGeometry>
        </mxCell>
        <mxCell id="ZvzS9FrOkyC6fBPtpC9W-92" value="11" style="ellipse;shape=doubleEllipse;whiteSpace=wrap;html=1;aspect=fixed;" parent="1" vertex="1">
          <mxGeometry x="750" y="274" width="30" height="30" as="geometry" />
        </mxCell>
        <mxCell id="DhYsW5sf-vEA2xXuITr3-1" value="Relayer Contract" style="whiteSpace=wrap;html=1;aspect=fixed;fillColor=#d5e8d4;strokeColor=#82b366;" parent="1" vertex="1">
          <mxGeometry x="920" y="360" width="80" height="80" as="geometry" />
        </mxCell>
        <mxCell id="DhYsW5sf-vEA2xXuITr3-7" value="7" style="ellipse;shape=doubleEllipse;whiteSpace=wrap;html=1;aspect=fixed;" parent="1" vertex="1">
          <mxGeometry x="830" y="360" width="30" height="30" as="geometry" />
        </mxCell>
        <mxCell id="DhYsW5sf-vEA2xXuITr3-9" value="1" style="ellipse;shape=doubleEllipse;whiteSpace=wrap;html=1;aspect=fixed;" parent="1" vertex="1">
          <mxGeometry x="465" y="560" width="30" height="30" as="geometry" />
        </mxCell>
        <mxCell id="DhYsW5sf-vEA2xXuITr3-13" value="User" style="text;html=1;align=center;verticalAlign=middle;resizable=0;points=[];autosize=1;strokeColor=none;fillColor=none;" parent="1" vertex="1">
          <mxGeometry x="40" y="64" width="50" height="30" as="geometry" />
        </mxCell>
      </root>
    </mxGraphModel>
  </diagram>
</mxfile>
